HIERARCHY
ROOT Hips
{
	OFFSET 0.000000 0.000000 0.000000
	CHANNELS 6 Xposition Yposition Zposition Zrotation Yrotation Xrotation 
	JOINT LHipJoint
	{
		OFFSET 0.000000 0.000000 0.000000
		CHANNELS 3 Zrotation Yrotation Xrotation
		JOINT LeftUpLeg
		{
			OFFSET 1.363060 -1.794630 0.839290
			CHANNELS 3 Zrotation Yrotation Xrotation
			JOINT LeftLeg
			{
				OFFSET 2.448110 -6.726130 0.000000
				CHANNELS 3 Zrotation Yrotation Xrotation
				JOINT LeftFoot
				{
					OFFSET 2.562200 -7.039590 0.000000
					CHANNELS 3 Zrotation Yrotation Xrotation
					JOINT LeftToeBase
					{
						OFFSET 0.157640 -0.433110 2.322550
						CHANNELS 3 Zrotation Yrotation Xrotation
						End Site
						{
							OFFSET 0.000000 0.000000 0.000000
						}
					}
				}
			}
		}
	}
	JOINT RHipJoint
	{
		OFFSET 0.000000 0.000000 0.000000
		CHANNELS 3 Zrotation Yrotation Xrotation
		JOINT RightUpLeg
		{
			OFFSET -1.305520 -1.794630 0.839290
			CHANNELS 3 Zrotation Yrotation Xrotation
			JOINT RightLeg
			{
				OFFSET -2.542530 -6.985550 0.000000
				CHANNELS 3 Zrotation Yrotation Xrotation
				JOINT RightFoot
				{
					OFFSET -2.568260 -7.056230 0.000000
					CHANNELS 3 Zrotation Yrotation Xrotation
					JOINT RightToeBase
					{
						OFFSET -0.164730 -0.452590 2.363150
						CHANNELS 3 Zrotation Yrotation Xrotation
						End Site
						{
							OFFSET 0.000000 0.000000 0.000000
						}
					}
				}
			}
		}
	}
	JOINT LowerBack
	{
		OFFSET 0.000000 0.000000 0.000000
		CHANNELS 3 Zrotation Yrotation Xrotation
		JOINT Spine
		{
			OFFSET 0.028270 2.035590 -0.193380
			CHANNELS 3 Zrotation Yrotation Xrotation
			JOINT Spine1
			{
				OFFSET 0.056720 2.048850 -0.042750
				CHANNELS 3 Zrotation Yrotation Xrotation
				JOINT Neck
				{
					OFFSET 0.000000 0.000000 0.000000
					CHANNELS 3 Zrotation Yrotation Xrotation
					JOINT Neck1
					{
						OFFSET -0.054170 1.746240 0.172020
						CHANNELS 3 Zrotation Yrotation Xrotation
						JOINT Head
						{
							OFFSET 0.104070 1.761360 -0.123970
							CHANNELS 3 Zrotation Yrotation Xrotation
							End Site
							{
								OFFSET 0.000000 0.000000 0.000000
							}
						}
					}
				}
				JOINT LeftShoulder
				{
					OFFSET 0.000000 0.000000 0.000000
					CHANNELS 3 Zrotation Yrotation Xrotation
					JOINT LeftArm
					{
						OFFSET 3.362410 1.200890 -0.311210
						CHANNELS 3 Zrotation Yrotation Xrotation
						JOINT LeftForeArm
						{
							OFFSET 4.983000 -0.000000 -0.000000
							CHANNELS 3 Zrotation Yrotation Xrotation
							JOINT LeftHand
							{
								OFFSET 3.483560 -0.000000 -0.000000
								CHANNELS 3 Zrotation Yrotation Xrotation
								JOINT LeftFingerBase
								{
									OFFSET 0.000000 0.000000 0.000000
									CHANNELS 3 Zrotation Yrotation Xrotation
									JOINT LeftHandIndex1
									{
										OFFSET 0.715260 -0.000000 -0.000000
										CHANNELS 3 Zrotation Yrotation Xrotation
										End Site
										{
											OFFSET 0.000000 0.000000 0.000000
										}
									}
								}
								JOINT LThumb
								{
									OFFSET 0.000000 0.000000 0.000000
									CHANNELS 3 Zrotation Yrotation Xrotation
									End Site
									{
										OFFSET 0.000000 0.000000 0.000000
									}
								}
							}
						}
					}
				}
				JOINT RightShoulder
				{
					OFFSET 0.000000 0.000000 0.000000
					CHANNELS 3 Zrotation Yrotation Xrotation
					JOINT RightArm
					{
						OFFSET -3.136600 1.374050 -0.404650
						CHANNELS 3 Zrotation Yrotation Xrotation
						JOINT RightForeArm
						{
							OFFSET -5.241900 -0.000000 -0.000000
							CHANNELS 3 Zrotation Yrotation Xrotation
							JOINT RightHand
							{
								OFFSET -3.444170 -0.000000 -0.000000
								CHANNELS 3 Zrotation Yrotation Xrotation
								JOINT RightFingerBase
								{
									OFFSET 0.000000 0.000000 0.000000
									CHANNELS 3 Zrotation Yrotation Xrotation
									JOINT RightHandIndex1
									{
										OFFSET -0.622530 -0.000000 -0.000000
										CHANNELS 3 Zrotation Yrotation Xrotation
										End Site
										{
											OFFSET 0.000000 0.000000 0.000000
										}
									}
								}
								JOINT RThumb
								{
									OFFSET 0.000000 0.000000 0.000000
									CHANNELS 3 Zrotation Yrotation Xrotation
									End Site
									{
										OFFSET 0.000000 0.000000 0.000000
									}
								}
							}
						}
					}
				}
			}
		}
	}
}
MOTION
Frames: 4
Frame Time: 0.008333
9.527339 18.778803 9.564206 -2.507734 3.654401 -5.022873 11.718878 -1.029465 -0.069535 -30.487280 -11.661421 -3.352319 7.492125 11.530620 37.383711 -2.990484 -21.346968 -34.017603 0.123600 -2.266500 -6.242900 -18.919204 -0.422001 -7.378055 46.782233 -0.278875 13.723715 -6.208274 -6.510620 15.767936 -5.493953 -1.587555 -48.187884 -0.194300 -2.838400 7.829200 6.397277 2.378245 -9.441875 -8.280896 2.239563 28.619211 -1.551054 1.035306 -3.678401 -7.541620 -4.050380 -9.982055 25.185348 -7.408958 9.431431 3.623300 -2.910500 2.862600 6.561250 -7.385345 0.546971 -90.796789 -7.486653 38.225611 18.357354 -20.709686 -1.677969 0.526265 -0.085539 -1.240276 7.461781 -11.614107 -1.393200 -7.125000 0.000000 0.000000 -14.102100 18.552400 9.163600 -1.599408 7.159543 0.772607 95.872356 0.702594 24.781165 -23.178428 25.913516 -4.996347 1.026372 -4.698125 3.814737 -0.245609 -51.285118 1.278200 7.125000 0.000000 0.000000 55.409600 -69.187600 -35.771000 
9.527787 18.779250 9.561880 -2.522551 3.717419 -5.022874 11.717442 -1.045653 -0.010098 -30.480258 -11.945606 -3.425040 7.558836 11.566812 37.562921 -3.376296 -21.889131 -33.050574 0.020200 0.917400 2.521600 -18.915270 -0.401262 -7.464206 46.720750 -0.567787 13.898105 -6.163708 -6.409372 15.386742 -5.481224 -1.616140 -48.052598 -0.183900 -2.761800 7.616200 6.489026 2.372695 -9.409201 -8.342054 2.234856 28.591437 -1.615021 1.015245 -3.698590 -7.657975 -4.061452 -10.052353 25.433753 -7.479053 9.637214 3.655700 -2.915400 2.893900 6.587772 -7.401059 0.561941 -90.771384 -7.472186 38.237204 18.351111 -20.709153 -1.679427 0.533255 -0.078744 -1.242827 7.532625 -11.571345 -1.401800 -7.125000 0.000000 0.000000 -14.060500 18.584800 9.124500 -1.566751 7.145307 0.778134 95.901339 0.687488 24.835179 -23.169022 25.897222 -4.995195 1.020299 -4.699125 3.834133 -0.281836 -51.342865 1.302600 7.125000 0.000000 0.000000 55.505300 -69.229100 -35.891700 
9.526355 18.780861 9.560806 -2.552053 3.757783 -5.024102 11.712556 -1.065007 0.027158 -30.434968 -12.176444 -3.428556 7.519713 11.583878 37.613215 -3.046015 -21.495588 -33.976125 0.026300 -1.047200 -2.878800 -18.900643 -0.381590 -7.496217 46.734257 -0.645501 13.981141 -6.144250 -6.368600 15.242826 -5.476708 -1.587757 -48.044203 -0.188300 -2.794400 7.706700 6.483467 2.358214 -9.405646 -8.276721 2.213924 28.615501 -1.671577 1.006317 -3.738937 -7.817684 -4.096571 -10.217790 25.737664 -7.604551 9.984543 3.696500 -2.929000 2.951400 6.593062 -7.407148 0.579034 -90.815843 -7.420962 37.980167 18.389950 -20.779577 -1.682668 0.507710 -0.079026 -0.985142 7.372753 -11.522989 -1.369100 -7.125000 0.000000 0.000000 -14.156400 18.635700 9.174200 -1.540599 7.136622 0.789454 95.919353 0.652041 24.883426 -23.207249 25.938187 -5.004090 1.012201 -4.694248 3.762137 -0.468029 -51.317625 1.426900 7.125000 0.000000 0.000000 55.299000 -69.270100 -35.775900 
9.524923 18.779697 9.562148 -2.579459 3.771616 -5.042178 11.695115 -1.059746 0.002785 -30.367007 -12.013124 -3.450849 7.524419 11.596388 37.660513 -2.982699 -21.355850 -34.079928 0.117700 -2.211400 -6.090300 -18.891473 -0.366724 -7.514517 46.755823 -0.693280 14.078338 -6.126386 -6.325707 15.083346 -5.480274 -1.628648 -48.007352 -0.191800 -2.820200 7.778400 6.512240 2.356363 -9.340834 -8.265015 2.205574 28.511011 -1.695424 0.998871 -3.784260 -7.902876 -4.100434 -10.210938 25.866792 -7.662721 10.205745 3.714300 -2.930700 2.971500 6.567636 -7.442778 0.604484 -90.854781 -7.220009 37.721526 18.511674 -20.933516 -1.702124 0.478656 -0.074110 -0.724312 7.185935 -11.473733 -1.332300 -7.125000 0.000000 0.000000 -14.268100 18.683400 9.235700 -1.497981 7.153211 0.807378 95.919948 0.497879 24.978538 -23.298043 26.013181 -5.025834 1.008032 -4.684137 3.554408 -0.777833 -51.253914 1.634500 7.125000 0.000000 0.000000 54.907200 -69.327400 -35.533500 
